<?xml version="1.0" encoding="UTF-8" standalone="no"?>
<svg width="82px" height="114px" viewBox="0 0 82 114" version="1.1" xmlns="http://www.w3.org/2000/svg" xmlns:xlink="http://www.w3.org/1999/xlink" xmlns:sketch="http://www.bohemiancoding.com/sketch/ns">
    <!-- Generator: Sketch 3.1.1 (8761) - http://www.bohemiancoding.com/sketch -->
    <title>Artboard 1</title>
    <desc>Created with Sketch.</desc>
    <defs></defs>
    <g id="Page-1" stroke="none" stroke-width="1" fill="none" fill-rule="evenodd" sketch:type="MSPage">
        <g id="Artboard-1" sketch:type="MSArtboardGroup">
            <g id="Imported-Layers" sketch:type="MSLayerGroup" transform="translate(5.000000, 2.000000)">
                <path d="M4.9626,-0.063225 C2.15415,-0.063225 -0.052425,2.143575 -0.052425,4.952025 L-0.052425,31.030425 C-0.052425,33.838875 2.15415,36.04545 4.9626,36.04545 L31.041225,36.04545 C33.849675,36.04545 36.05625,33.838875 36.05625,31.030425 L36.05625,4.952025 C36.05625,2.143575 33.849675,-0.063225 31.041225,-0.063225 L4.9626,-0.063225 Z" id="Fill-1" fill-opacity="0.2" fill="#000000" sketch:type="MSShapeGroup"></path>
                <path d="M23.518575,9.96705 L19.506375,9.96705 L12.48525,17.991225 L19.506375,26.0154 L23.518575,26.0154 L16.49745,17.991225 L23.518575,9.96705" id="Fill-2" fill="#FFFFFF" sketch:type="MSShapeGroup"></path>
            </g>
            <g id="Imported-Layers" sketch:type="MSLayerGroup" transform="translate(64.000000, 20.000000) scale(-1, 1) translate(-64.000000, -20.000000) translate(46.000000, 2.000000)">
                <path d="M4.9626,-0.063225 C2.15415,-0.063225 -0.052425,2.143575 -0.052425,4.952025 L-0.052425,31.030425 C-0.052425,33.838875 2.15415,36.04545 4.9626,36.04545 L31.041225,36.04545 C33.849675,36.04545 36.05625,33.838875 36.05625,31.030425 L36.05625,4.952025 C36.05625,2.143575 33.849675,-0.063225 31.041225,-0.063225 L4.9626,-0.063225 Z" id="Fill-1" fill-opacity="0.2" fill="#000000" sketch:type="MSShapeGroup"></path>
                <path d="M23.518575,9.96705 L19.506375,9.96705 L12.48525,17.991225 L19.506375,26.0154 L23.518575,26.0154 L16.49745,17.991225 L23.518575,9.96705" id="Fill-2" fill="#FFFFFF" sketch:type="MSShapeGroup"></path>
            </g>
            <g id="Imported-Layers" sketch:type="MSLayerGroup" transform="translate(5.000000, 40.000000)">
                <path d="M31.041225,-0.063225 L4.9626,-0.063225 C2.15415,-0.063225 -0.052425,2.143575 -0.052425,4.952025 L-0.052425,31.030425 C-0.052425,33.838875 2.15415,36.04545 4.9626,36.04545 L31.041225,36.04545 C33.849675,36.04545 36.05625,33.838875 36.05625,31.030425 L36.05625,4.952025 C36.05625,2.143575 33.849675,-0.063225 31.041225,-0.063225" id="Fill-1" fill-opacity="0.4" fill="#000000" sketch:type="MSShapeGroup"></path>
                <path d="M23.518575,9.96705 L19.506375,9.96705 L12.48525,17.991225 L19.506375,26.0154 L23.518575,26.0154 L16.49745,17.991225 L23.518575,9.96705" id="Fill-2" fill="#FFFFFF" sketch:type="MSShapeGroup"></path>
            </g>
            <g id="Imported-Layers" sketch:type="MSLayerGroup" transform="translate(64.000000, 58.000000) scale(-1, 1) translate(-64.000000, -58.000000) translate(46.000000, 40.000000)">
                <path d="M31.041225,-0.063225 L4.9626,-0.063225 C2.15415,-0.063225 -0.052425,2.143575 -0.052425,4.952025 L-0.052425,31.030425 C-0.052425,33.838875 2.15415,36.04545 4.9626,36.04545 L31.041225,36.04545 C33.849675,36.04545 36.05625,33.838875 36.05625,31.030425 L36.05625,4.952025 C36.05625,2.143575 33.849675,-0.063225 31.041225,-0.063225" id="Fill-1" fill-opacity="0.4" fill="#000000" sketch:type="MSShapeGroup"></path>
                <path d="M23.518575,9.96705 L19.506375,9.96705 L12.48525,17.991225 L19.506375,26.0154 L23.518575,26.0154 L16.49745,17.991225 L23.518575,9.96705" id="Fill-2" fill="#FFFFFF" sketch:type="MSShapeGroup"></path>
            </g>
            <g id="Imported-Layers" sketch:type="MSLayerGroup" transform="translate(5.000000, 78.000000)">
                <path d="M4.9626,-0.063225 C2.15415,-0.063225 -0.052425,2.143575 -0.052425,4.952025 L-0.052425,31.030425 C-0.052425,33.838875 2.15415,36.04545 4.9626,36.04545 L31.041225,36.04545 C33.849675,36.04545 36.05625,33.838875 36.05625,31.030425 L36.05625,4.952025 C36.05625,2.143575 33.849675,-0.063225 31.041225,-0.063225 L4.9626,-0.063225 Z" id="Fill-1" fill-opacity="0.6" fill="#000000" sketch:type="MSShapeGroup"></path>
                <path d="M23.518575,9.96705 L19.506375,9.96705 L12.48525,17.991225 L19.506375,26.0154 L23.518575,26.0154 L16.49745,17.991225 L23.518575,9.96705" id="Fill-2" fill="#FFFFFF" sketch:type="MSShapeGroup"></path>
            </g>
            <g id="Imported-Layers" sketch:type="MSLayerGroup" transform="translate(64.000000, 96.000000) scale(-1, 1) translate(-64.000000, -96.000000) translate(46.000000, 78.000000)">
                <path d="M31.041225,-0.063225 L4.9626,-0.063225 C2.15415,-0.063225 -0.052425,2.143575 -0.052425,4.952025 L-0.052425,31.030425 C-0.052425,33.838875 2.15415,36.04545 4.9626,36.04545 L31.041225,36.04545 C33.849675,36.04545 36.05625,33.838875 36.05625,31.030425 L36.05625,4.952025 C36.05625,2.143575 33.849675,-0.063225 31.041225,-0.063225" id="Fill-1" fill-opacity="0.6" fill="#000000" sketch:type="MSShapeGroup"></path>
                <path d="M23.518575,9.96705 L19.506375,9.96705 L12.48525,17.991225 L19.506375,26.0154 L23.518575,26.0154 L16.49745,17.991225 L23.518575,9.96705" id="Fill-2" fill="#FFFFFF" sketch:type="MSShapeGroup"></path>
            </g>
        </g>
    </g>
</svg>